<svg xmlns="http://www.w3.org/2000/svg" viewBox="0 0 122.88 97.04" style="enable-background:new 0 0 122.88 97.04" xml:space="preserve"><path d="M2.38 0h18.33v4.76H4.76V17.2H0V2.38C0 1.07 1.07 0 2.38 0zm15.54 16.23h8.26v64.58h-8.26V16.23zm51.49 0h5.9v64.58h-5.9V16.23zm-11.43 0h4.42v64.58h-4.42V16.23zm-24.79 0h2.51v64.58h-2.51V16.23zm64.4 0h7.37v64.58h-7.37V16.23zm-15.27 0h8.26v64.58h-8.26V16.23zm-39.61 0h8.26v64.58h-8.26V16.23zM4.76 79.84v12.44h15.95v4.76H2.38A2.38 2.38 0 0 1 0 94.66V79.84h4.76zM103.4 0h17.1c1.31 0 2.38 1.07 2.38 2.38V17.2h-4.76V4.76H103.4V0zm19.48 79.84v14.82c0 1.31-1.07 2.38-2.38 2.38h-17.1v-4.76h14.72V79.84h4.76z"/></svg>